<mxfile host="app.diagrams.net" modified="2020-12-01T13:49:43.187Z" agent="5.0 (X11)" etag="BvbJmg8dPFXLeJxHCg-Q" version="13.10.4" type="github">
  <diagram id="C5RBs43oDa-KdzZeNtuy" name="Page-1">
    <mxGraphModel dx="959" dy="507" grid="1" gridSize="10" guides="1" tooltips="1" connect="1" arrows="1" fold="1" page="1" pageScale="1" pageWidth="1169" pageHeight="827" math="0" shadow="0">
      <root>
        <mxCell id="WIyWlLk6GJQsqaUBKTNV-0" />
        <mxCell id="WIyWlLk6GJQsqaUBKTNV-1" parent="WIyWlLk6GJQsqaUBKTNV-0" />
        <mxCell id="gtXkjOMgRq_pGG1nYrA1-28" style="edgeStyle=orthogonalEdgeStyle;rounded=0;orthogonalLoop=1;jettySize=auto;html=1;entryX=0.5;entryY=0;entryDx=0;entryDy=0;entryPerimeter=0;fontFamily=Verdana;" edge="1" parent="WIyWlLk6GJQsqaUBKTNV-1" source="gtXkjOMgRq_pGG1nYrA1-10" target="gtXkjOMgRq_pGG1nYrA1-11">
          <mxGeometry relative="1" as="geometry" />
        </mxCell>
        <mxCell id="gtXkjOMgRq_pGG1nYrA1-10" value="Bắt đầu" style="strokeWidth=2;html=1;shape=mxgraph.flowchart.terminator;whiteSpace=wrap;fontFamily=Verdana;" vertex="1" parent="WIyWlLk6GJQsqaUBKTNV-1">
          <mxGeometry x="370" y="70" width="100" height="60" as="geometry" />
        </mxCell>
        <mxCell id="gtXkjOMgRq_pGG1nYrA1-31" style="edgeStyle=orthogonalEdgeStyle;rounded=0;orthogonalLoop=1;jettySize=auto;html=1;exitX=0.5;exitY=1;exitDx=0;exitDy=0;exitPerimeter=0;entryX=0.5;entryY=0;entryDx=0;entryDy=0;entryPerimeter=0;fontFamily=Verdana;" edge="1" parent="WIyWlLk6GJQsqaUBKTNV-1" source="gtXkjOMgRq_pGG1nYrA1-11" target="gtXkjOMgRq_pGG1nYrA1-13">
          <mxGeometry relative="1" as="geometry" />
        </mxCell>
        <mxCell id="gtXkjOMgRq_pGG1nYrA1-51" value="Mode = 1" style="edgeLabel;html=1;align=center;verticalAlign=middle;resizable=0;points=[];fontFamily=Verdana;" vertex="1" connectable="0" parent="gtXkjOMgRq_pGG1nYrA1-31">
          <mxGeometry x="-0.3167" relative="1" as="geometry">
            <mxPoint as="offset" />
          </mxGeometry>
        </mxCell>
        <mxCell id="gtXkjOMgRq_pGG1nYrA1-32" style="edgeStyle=orthogonalEdgeStyle;rounded=0;orthogonalLoop=1;jettySize=auto;html=1;exitX=1;exitY=0.5;exitDx=0;exitDy=0;exitPerimeter=0;entryX=0.5;entryY=0;entryDx=0;entryDy=0;entryPerimeter=0;fontFamily=Verdana;" edge="1" parent="WIyWlLk6GJQsqaUBKTNV-1" source="gtXkjOMgRq_pGG1nYrA1-11" target="gtXkjOMgRq_pGG1nYrA1-26">
          <mxGeometry relative="1" as="geometry" />
        </mxCell>
        <mxCell id="gtXkjOMgRq_pGG1nYrA1-52" value="Mode = 2" style="edgeLabel;html=1;align=center;verticalAlign=middle;resizable=0;points=[];fontFamily=Verdana;" vertex="1" connectable="0" parent="gtXkjOMgRq_pGG1nYrA1-32">
          <mxGeometry x="-0.125" y="1" relative="1" as="geometry">
            <mxPoint x="40" y="21" as="offset" />
          </mxGeometry>
        </mxCell>
        <mxCell id="gtXkjOMgRq_pGG1nYrA1-11" value="&lt;div&gt;Mode?&lt;/div&gt;" style="strokeWidth=2;html=1;shape=mxgraph.flowchart.decision;whiteSpace=wrap;fontFamily=Verdana;" vertex="1" parent="WIyWlLk6GJQsqaUBKTNV-1">
          <mxGeometry x="380" y="160" width="80" height="40" as="geometry" />
        </mxCell>
        <mxCell id="gtXkjOMgRq_pGG1nYrA1-33" style="edgeStyle=orthogonalEdgeStyle;rounded=0;orthogonalLoop=1;jettySize=auto;html=1;exitX=0.5;exitY=1;exitDx=0;exitDy=0;exitPerimeter=0;entryX=0.491;entryY=0.103;entryDx=0;entryDy=0;entryPerimeter=0;fontFamily=Verdana;" edge="1" parent="WIyWlLk6GJQsqaUBKTNV-1" source="gtXkjOMgRq_pGG1nYrA1-13" target="gtXkjOMgRq_pGG1nYrA1-15">
          <mxGeometry relative="1" as="geometry" />
        </mxCell>
        <mxCell id="gtXkjOMgRq_pGG1nYrA1-13" value="Bắt đầu minterm mode" style="strokeWidth=2;html=1;shape=mxgraph.flowchart.start_1;whiteSpace=wrap;fontFamily=Verdana;" vertex="1" parent="WIyWlLk6GJQsqaUBKTNV-1">
          <mxGeometry x="370" y="240" width="100" height="60" as="geometry" />
        </mxCell>
        <mxCell id="gtXkjOMgRq_pGG1nYrA1-35" value="" style="edgeStyle=orthogonalEdgeStyle;rounded=0;orthogonalLoop=1;jettySize=auto;html=1;fontFamily=Verdana;" edge="1" parent="WIyWlLk6GJQsqaUBKTNV-1" source="gtXkjOMgRq_pGG1nYrA1-15" target="gtXkjOMgRq_pGG1nYrA1-17">
          <mxGeometry relative="1" as="geometry" />
        </mxCell>
        <mxCell id="gtXkjOMgRq_pGG1nYrA1-15" value="Nhập giá trị minterm và don&#39;t care" style="html=1;strokeWidth=2;shape=manualInput;whiteSpace=wrap;rounded=1;size=13;arcSize=18;fontFamily=Verdana;" vertex="1" parent="WIyWlLk6GJQsqaUBKTNV-1">
          <mxGeometry x="375" y="330" width="90" height="70" as="geometry" />
        </mxCell>
        <mxCell id="gtXkjOMgRq_pGG1nYrA1-38" value="" style="edgeStyle=orthogonalEdgeStyle;rounded=0;orthogonalLoop=1;jettySize=auto;html=1;fontFamily=Verdana;" edge="1" parent="WIyWlLk6GJQsqaUBKTNV-1" source="gtXkjOMgRq_pGG1nYrA1-17" target="gtXkjOMgRq_pGG1nYrA1-19">
          <mxGeometry relative="1" as="geometry" />
        </mxCell>
        <mxCell id="gtXkjOMgRq_pGG1nYrA1-17" value="Tạo Minterm table (dựa trên số chữ số 1)" style="rounded=1;whiteSpace=wrap;html=1;absoluteArcSize=1;arcSize=14;strokeWidth=2;fontFamily=Verdana;" vertex="1" parent="WIyWlLk6GJQsqaUBKTNV-1">
          <mxGeometry x="370" y="430" width="100" height="60" as="geometry" />
        </mxCell>
        <mxCell id="gtXkjOMgRq_pGG1nYrA1-47" style="edgeStyle=orthogonalEdgeStyle;rounded=0;orthogonalLoop=1;jettySize=auto;html=1;entryX=0;entryY=0.5;entryDx=0;entryDy=0;fontFamily=Verdana;" edge="1" parent="WIyWlLk6GJQsqaUBKTNV-1" source="gtXkjOMgRq_pGG1nYrA1-18" target="gtXkjOMgRq_pGG1nYrA1-20">
          <mxGeometry relative="1" as="geometry" />
        </mxCell>
        <mxCell id="gtXkjOMgRq_pGG1nYrA1-18" value="Tạo Prime Implicant Chart" style="rounded=1;whiteSpace=wrap;html=1;absoluteArcSize=1;arcSize=14;strokeWidth=2;fontFamily=Verdana;" vertex="1" parent="WIyWlLk6GJQsqaUBKTNV-1">
          <mxGeometry x="500" y="537.5" width="100" height="50" as="geometry" />
        </mxCell>
        <mxCell id="gtXkjOMgRq_pGG1nYrA1-46" style="edgeStyle=orthogonalEdgeStyle;rounded=0;orthogonalLoop=1;jettySize=auto;html=1;entryX=0;entryY=0.5;entryDx=0;entryDy=0;fontFamily=Verdana;" edge="1" parent="WIyWlLk6GJQsqaUBKTNV-1" source="gtXkjOMgRq_pGG1nYrA1-19" target="gtXkjOMgRq_pGG1nYrA1-18">
          <mxGeometry relative="1" as="geometry" />
        </mxCell>
        <mxCell id="gtXkjOMgRq_pGG1nYrA1-19" value="Tổng hợp các minterm theo từng cặp (khác nhau duy nhất 1 bit)" style="rounded=1;whiteSpace=wrap;html=1;absoluteArcSize=1;arcSize=14;strokeWidth=2;fontFamily=Verdana;" vertex="1" parent="WIyWlLk6GJQsqaUBKTNV-1">
          <mxGeometry x="370" y="520" width="100" height="85" as="geometry" />
        </mxCell>
        <mxCell id="gtXkjOMgRq_pGG1nYrA1-48" style="edgeStyle=orthogonalEdgeStyle;rounded=0;orthogonalLoop=1;jettySize=auto;html=1;entryX=0.5;entryY=0;entryDx=0;entryDy=0;fontFamily=Verdana;" edge="1" parent="WIyWlLk6GJQsqaUBKTNV-1" source="gtXkjOMgRq_pGG1nYrA1-20" target="gtXkjOMgRq_pGG1nYrA1-21">
          <mxGeometry relative="1" as="geometry" />
        </mxCell>
        <mxCell id="gtXkjOMgRq_pGG1nYrA1-20" value="Tìm tất cả tổ hợp các PI có thể có để bao trùm hết PI Chart" style="rounded=1;whiteSpace=wrap;html=1;absoluteArcSize=1;arcSize=14;strokeWidth=2;fontFamily=Verdana;" vertex="1" parent="WIyWlLk6GJQsqaUBKTNV-1">
          <mxGeometry x="650" y="522.5" width="100" height="80" as="geometry" />
        </mxCell>
        <mxCell id="gtXkjOMgRq_pGG1nYrA1-49" style="edgeStyle=orthogonalEdgeStyle;rounded=0;orthogonalLoop=1;jettySize=auto;html=1;entryX=1;entryY=0.5;entryDx=0;entryDy=0;fontFamily=Verdana;" edge="1" parent="WIyWlLk6GJQsqaUBKTNV-1" source="gtXkjOMgRq_pGG1nYrA1-21" target="gtXkjOMgRq_pGG1nYrA1-22">
          <mxGeometry relative="1" as="geometry" />
        </mxCell>
        <mxCell id="gtXkjOMgRq_pGG1nYrA1-21" value="Chọn những tổ hợp có số số hạng ít nhất" style="rounded=1;whiteSpace=wrap;html=1;absoluteArcSize=1;arcSize=14;strokeWidth=2;fontFamily=Verdana;" vertex="1" parent="WIyWlLk6GJQsqaUBKTNV-1">
          <mxGeometry x="650" y="630" width="100" height="60" as="geometry" />
        </mxCell>
        <mxCell id="gtXkjOMgRq_pGG1nYrA1-53" style="edgeStyle=orthogonalEdgeStyle;rounded=0;orthogonalLoop=1;jettySize=auto;html=1;entryX=1;entryY=0.5;entryDx=0;entryDy=0;entryPerimeter=0;fontFamily=Verdana;" edge="1" parent="WIyWlLk6GJQsqaUBKTNV-1" source="gtXkjOMgRq_pGG1nYrA1-22" target="gtXkjOMgRq_pGG1nYrA1-23">
          <mxGeometry relative="1" as="geometry" />
        </mxCell>
        <mxCell id="gtXkjOMgRq_pGG1nYrA1-22" value="Chọn những tổ hợp có số biến ít nhất" style="rounded=1;whiteSpace=wrap;html=1;absoluteArcSize=1;arcSize=14;strokeWidth=2;fontFamily=Verdana;" vertex="1" parent="WIyWlLk6GJQsqaUBKTNV-1">
          <mxGeometry x="500" y="630" width="100" height="60" as="geometry" />
        </mxCell>
        <mxCell id="gtXkjOMgRq_pGG1nYrA1-55" value="Maxterm" style="edgeStyle=orthogonalEdgeStyle;rounded=0;orthogonalLoop=1;jettySize=auto;html=1;entryX=0;entryY=0.5;entryDx=0;entryDy=0;entryPerimeter=0;fontFamily=Verdana;" edge="1" parent="WIyWlLk6GJQsqaUBKTNV-1" source="gtXkjOMgRq_pGG1nYrA1-23" target="gtXkjOMgRq_pGG1nYrA1-25">
          <mxGeometry x="0.2594" relative="1" as="geometry">
            <Array as="points">
              <mxPoint x="405" y="740" />
            </Array>
            <mxPoint as="offset" />
          </mxGeometry>
        </mxCell>
        <mxCell id="gtXkjOMgRq_pGG1nYrA1-56" style="edgeStyle=orthogonalEdgeStyle;rounded=0;orthogonalLoop=1;jettySize=auto;html=1;entryX=0;entryY=0.5;entryDx=0;entryDy=0;entryPerimeter=0;fontFamily=Verdana;" edge="1" parent="WIyWlLk6GJQsqaUBKTNV-1" source="gtXkjOMgRq_pGG1nYrA1-23" target="gtXkjOMgRq_pGG1nYrA1-24">
          <mxGeometry relative="1" as="geometry">
            <Array as="points">
              <mxPoint x="405" y="820" />
            </Array>
          </mxGeometry>
        </mxCell>
        <mxCell id="gtXkjOMgRq_pGG1nYrA1-57" value="Minterm" style="edgeLabel;html=1;align=center;verticalAlign=middle;resizable=0;points=[];fontFamily=Verdana;" vertex="1" connectable="0" parent="gtXkjOMgRq_pGG1nYrA1-56">
          <mxGeometry x="0.3358" y="-1" relative="1" as="geometry">
            <mxPoint x="21.59" y="-1.03" as="offset" />
          </mxGeometry>
        </mxCell>
        <mxCell id="gtXkjOMgRq_pGG1nYrA1-23" value="&lt;div&gt;Mode đã chọn&lt;/div&gt;&lt;div&gt; ở bước đầu?&lt;/div&gt;" style="strokeWidth=2;html=1;shape=mxgraph.flowchart.decision;whiteSpace=wrap;fontFamily=Verdana;" vertex="1" parent="WIyWlLk6GJQsqaUBKTNV-1">
          <mxGeometry x="350" y="620" width="110" height="80" as="geometry" />
        </mxCell>
        <mxCell id="gtXkjOMgRq_pGG1nYrA1-24" value="Hiển thị SOP" style="strokeWidth=2;html=1;shape=mxgraph.flowchart.display;whiteSpace=wrap;fontFamily=Verdana;" vertex="1" parent="WIyWlLk6GJQsqaUBKTNV-1">
          <mxGeometry x="500" y="790" width="100" height="60" as="geometry" />
        </mxCell>
        <mxCell id="gtXkjOMgRq_pGG1nYrA1-25" value="Hiển thị POS" style="strokeWidth=2;html=1;shape=mxgraph.flowchart.display;whiteSpace=wrap;fontFamily=Verdana;" vertex="1" parent="WIyWlLk6GJQsqaUBKTNV-1">
          <mxGeometry x="500" y="710" width="100" height="60" as="geometry" />
        </mxCell>
        <mxCell id="gtXkjOMgRq_pGG1nYrA1-34" value="" style="edgeStyle=orthogonalEdgeStyle;rounded=0;orthogonalLoop=1;jettySize=auto;html=1;fontFamily=Verdana;entryX=0.5;entryY=0.086;entryDx=0;entryDy=0;entryPerimeter=0;" edge="1" parent="WIyWlLk6GJQsqaUBKTNV-1" source="gtXkjOMgRq_pGG1nYrA1-26" target="gtXkjOMgRq_pGG1nYrA1-27">
          <mxGeometry relative="1" as="geometry" />
        </mxCell>
        <mxCell id="gtXkjOMgRq_pGG1nYrA1-26" value="Bắt đầu maxterm mode" style="strokeWidth=2;html=1;shape=mxgraph.flowchart.start_1;whiteSpace=wrap;fontFamily=Verdana;" vertex="1" parent="WIyWlLk6GJQsqaUBKTNV-1">
          <mxGeometry x="520" y="230" width="100" height="60" as="geometry" />
        </mxCell>
        <mxCell id="gtXkjOMgRq_pGG1nYrA1-37" value="&lt;div&gt;&lt;font style=&quot;font-size: 8px&quot;&gt;Coi các maxterm &lt;br&gt;&lt;/font&gt;&lt;/div&gt;&lt;div&gt;&lt;font style=&quot;font-size: 8px&quot;&gt;là các minterm&lt;/font&gt;&lt;/div&gt;" style="edgeStyle=orthogonalEdgeStyle;rounded=0;orthogonalLoop=1;jettySize=auto;html=1;entryX=1;entryY=0.5;entryDx=0;entryDy=0;fontFamily=Verdana;exitX=0.5;exitY=1;exitDx=0;exitDy=0;" edge="1" parent="WIyWlLk6GJQsqaUBKTNV-1" source="gtXkjOMgRq_pGG1nYrA1-27" target="gtXkjOMgRq_pGG1nYrA1-17">
          <mxGeometry x="-0.6471" relative="1" as="geometry">
            <Array as="points">
              <mxPoint x="570" y="460" />
            </Array>
            <mxPoint as="offset" />
          </mxGeometry>
        </mxCell>
        <mxCell id="gtXkjOMgRq_pGG1nYrA1-27" value="Nhập giá trị maxterm và don&#39;t care" style="html=1;strokeWidth=2;shape=manualInput;whiteSpace=wrap;rounded=1;size=13;arcSize=18;fontFamily=Verdana;" vertex="1" parent="WIyWlLk6GJQsqaUBKTNV-1">
          <mxGeometry x="525" y="320" width="90" height="70" as="geometry" />
        </mxCell>
      </root>
    </mxGraphModel>
  </diagram>
</mxfile>
